<?xml version="1.0" standalone="no"?>
<!DOCTYPE svg PUBLIC "-//W3C//DTD SVG 20010904//EN"
 "http://www.w3.org/TR/2001/REC-SVG-20010904/DTD/svg10.dtd">
<svg version="1.0" xmlns="http://www.w3.org/2000/svg"
 width="300.000000pt" height="300.000000pt" viewBox="0 0 300.000000 300.000000"
 preserveAspectRatio="xMidYMid meet">
<metadata>
Created by potrace 1.10, written by Peter Selinger 2001-2011
</metadata>
<g transform="translate(0.000000,300.000000) scale(0.100000,-0.100000)"
fill="#000000" stroke="none">
<path d="M1393 2412 c-34 -18 -58 -38 -263 -212 -74 -63 -189 -160 -255 -215
-326 -272 -345 -291 -345 -357 0 -73 92 -138 151 -108 23 12 132 97 174 136
11 11 52 46 90 79 39 33 83 72 100 86 218 190 411 349 424 349 9 0 37 -20 62
-43 76 -70 160 -141 190 -160 23 -15 31 -16 48 -5 12 7 23 20 26 28 8 26 9
164 1 186 -6 19 -145 154 -209 204 -66 52 -136 63 -194 32z m130 -34 c12 -6
73 -56 135 -111 l112 -99 0 -94 c0 -52 -3 -94 -7 -94 -5 0 -69 54 -143 120
-74 65 -143 119 -152 120 -14 0 -196 -153 -692 -582 -111 -96 -144 -108 -183
-65 -57 63 -40 92 130 235 78 66 266 223 417 351 266 224 276 231 318 231 24
0 53 -5 65 -12z"/>
<path d="M1946 2337 c-75 -42 -81 -64 -79 -289 2 -151 6 -204 17 -225 27 -52
192 -193 225 -193 9 0 22 5 29 12 21 21 14 -51 -8 -87 -30 -49 -89 -72 -185
-74 l-80 -2 -95 66 c-96 67 -132 78 -148 48 -5 -10 -13 -58 -16 -107 -4 -49
-9 -92 -11 -96 -3 -4 -47 -9 -99 -12 -83 -5 -100 -9 -129 -31 -70 -53 -85
-141 -35 -212 32 -47 78 -65 176 -68 60 -2 86 -7 93 -17 5 -8 9 -70 8 -137 -2
-99 1 -127 15 -147 20 -32 34 -32 77 -3 77 52 319 224 389 276 154 113 230
202 286 336 27 65 29 78 29 200 -1 111 -4 138 -23 184 -30 71 -76 138 -125
181 -23 19 -54 46 -69 60 -29 25 -29 27 -29 126 1 123 -20 176 -84 211 -50 28
-80 28 -129 0z m122 -33 c42 -29 52 -65 52 -193 l0 -119 43 -25 c92 -54 171
-165 202 -284 42 -163 -14 -355 -143 -490 -31 -33 -136 -115 -232 -182 -96
-68 -212 -150 -257 -182 -45 -33 -84 -59 -88 -59 -3 0 -5 75 -5 167 l2 167
-100 -3 c-149 -4 -202 29 -202 126 0 85 49 113 197 113 l108 0 -3 125 c-2 69
-1 125 3 125 4 0 28 -17 54 -38 127 -105 142 -112 225 -112 102 0 156 15 205
56 78 68 87 186 18 262 -11 12 -23 22 -26 22 -3 0 -4 -30 -3 -66 l4 -67 -29
21 c-15 11 -64 54 -108 95 l-80 74 -3 184 c-4 202 3 246 45 278 31 25 89 27
121 5z"/>
<path d="M1980 1925 c14 -16 36 -38 50 -49 14 -11 38 -33 53 -48 33 -32 37
-34 37 -14 0 8 -17 25 -37 37 -21 13 -58 42 -83 64 -31 27 -37 31 -20 10z"/>
<path d="M2296 1495 c-48 -93 -150 -173 -280 -221 -76 -29 -57 -31 25 -4 116
39 231 135 269 221 29 69 21 70 -14 4z"/>
<path d="M2237 1335 c-33 -36 -102 -95 -155 -132 -54 -36 -101 -71 -107 -76
-13 -13 65 32 86 50 8 7 19 13 24 13 10 0 88 63 131 105 30 29 90 105 83 105
-2 -1 -30 -30 -62 -65z"/>
<path d="M1410 2023 c-36 -28 -178 -154 -265 -235 -27 -25 -59 -55 -71 -65
-57 -50 -58 -51 -50 -340 4 -146 12 -277 17 -290 13 -36 3 -41 -27 -12 -48 45
-48 44 -53 367 -1 68 -4 85 -21 102 -19 19 -22 19 -50 5 -39 -20 -120 -121
-158 -198 -71 -141 -69 -323 6 -460 37 -68 146 -166 218 -197 56 -23 70 -24
310 -28 325 -5 300 -25 295 244 -1 86 -20 104 -109 104 -58 0 -75 4 -113 29
-57 35 -83 86 -83 161 -1 67 21 117 70 160 45 39 72 50 149 58 73 9 85 26 85
127 0 86 16 115 63 115 22 0 47 -12 82 -40 108 -86 117 -90 204 -90 44 0 83 5
86 10 4 6 -23 10 -74 10 l-79 0 -88 69 c-94 74 -120 85 -166 69 -44 -15 -58
-54 -58 -158 l0 -90 -63 0 c-53 0 -71 -5 -117 -32 -79 -48 -115 -110 -115
-197 1 -79 25 -133 82 -181 l38 -32 -45 8 c-49 8 -101 7 -140 -1 -64 -13 -136
82 -126 168 2 23 5 142 5 263 l1 222 202 176 c110 97 208 176 217 176 9 0 126
-98 261 -216 135 -118 253 -220 263 -225 39 -22 -3 29 -89 107 -48 43 -99 90
-113 104 -14 14 -62 57 -106 95 -44 39 -82 73 -85 76 -3 3 -27 25 -53 48 -57
49 -88 52 -137 14z m-485 -530 c-3 -32 -2 -131 2 -219 8 -156 10 -163 37 -199
16 -21 51 -47 80 -61 49 -23 60 -24 269 -24 l217 0 0 -145 0 -145 -220 0
c-122 0 -243 5 -272 11 -112 24 -228 111 -279 211 -73 143 -59 324 36 473 30
47 122 155 131 155 3 0 2 -26 -1 -57z"/>
<path d="M810 1125 c0 -19 58 -110 86 -137 86 -79 181 -103 384 -97 70 2 60 3
-60 9 -134 5 -150 8 -210 36 -82 39 -133 83 -171 148 -16 28 -29 47 -29 41z"/>
<path d="M756 1080 c4 -19 15 -52 26 -73 23 -46 94 -125 123 -138 11 -5 34
-17 50 -28 34 -20 85 -38 130 -45 81 -13 405 -9 405 4 0 6 -71 10 -193 10
-209 0 -261 9 -347 57 -81 46 -154 129 -186 211 l-14 37 6 -35z"/>
<path d="M1390 953 c0 -4 26 -30 58 -58 42 -37 50 -41 30 -17 -33 40 -88 87
-88 75z"/>
<path d="M2055 952 c-22 -14 -42 -28 -45 -31 -3 -4 -48 -37 -100 -73 -135 -94
-165 -121 -157 -141 10 -27 51 -37 146 -37 133 0 198 29 232 104 24 53 25 142
1 176 -22 33 -29 33 -77 2z m65 -63 c0 -86 -19 -130 -69 -161 -31 -20 -52 -23
-163 -27 -71 -1 -128 1 -128 5 1 5 33 30 73 57 40 26 117 81 172 121 55 41
103 75 108 75 4 1 7 -31 7 -70z"/>
</g>
</svg>
