<?xml version="1.0" standalone="no"?>
<!DOCTYPE svg PUBLIC "-//W3C//DTD SVG 20010904//EN"
 "http://www.w3.org/TR/2001/REC-SVG-20010904/DTD/svg10.dtd">
<svg version="1.0" xmlns="http://www.w3.org/2000/svg"
  viewBox="0 0 300.000000 300.000000"
 preserveAspectRatio="xMidYMid meet">
<metadata>
Created by potrace 1.10, written by Peter Selinger 2001-2011
</metadata>
<g transform="translate(0.000000,300.000000) scale(0.100000,-0.100000)"
fill="#ddd" stroke="none">
<path d="M1455 2469 c-22 -18 -26 -27 -21 -53 l6 -30 -25 34 c-33 45 -66 62
-107 55 -78 -14 -109 -47 -91 -95 6 -16 10 -30 8 -30 -2 0 -19 16 -38 35 -19
19 -42 35 -51 35 -28 0 -104 -41 -119 -63 -13 -20 -11 -28 14 -81 36 -75 36
-79 -1 -28 -16 23 -41 49 -56 59 -25 16 -28 16 -71 -7 -50 -26 -93 -76 -93
-107 0 -11 21 -45 48 -75 26 -30 67 -83 91 -117 43 -60 113 -131 129 -131 41
2 59 78 37 163 -6 26 -9 47 -5 47 4 0 13 -28 19 -62 7 -35 16 -77 20 -94 8
-29 4 -124 -5 -133 -2 -3 -26 17 -51 44 -44 45 -151 105 -187 105 -23 0 -31
21 -12 32 9 5 16 19 16 30 0 41 -78 131 -131 150 -21 8 -63 -20 -95 -63 -40
-52 -47 -77 -29 -102 20 -28 19 -37 -4 -37 -10 0 -29 -9 -42 -19 -23 -18 -23
-21 -10 -58 8 -21 17 -40 20 -43 4 -3 20 -23 36 -45 l29 -40 -48 48 c-26 26
-53 47 -60 47 -38 0 -95 -129 -96 -216 0 -42 30 -69 67 -60 26 7 25 5 -9 -19
-42 -28 -68 -71 -68 -109 0 -50 32 -211 46 -233 8 -13 21 -23 29 -23 8 0 42
24 76 53 84 72 150 117 171 117 9 0 20 5 23 10 3 6 12 10 18 10 7 0 -24 -24
-68 -52 -98 -64 -191 -153 -201 -191 -23 -93 158 -140 285 -74 28 14 58 24 66
21 9 -4 27 14 50 50 33 49 40 54 65 49 45 -9 199 81 177 104 -4 3 -44 1 -89
-6 -72 -11 -88 -10 -120 3 -42 18 -108 21 -108 6 0 -10 18 -14 57 -10 12 1 30
-3 40 -9 17 -10 17 -10 0 -11 -10 0 -15 -4 -12 -10 11 -17 -41 -58 -93 -74
-28 -8 -102 -22 -164 -31 -62 -9 -115 -19 -117 -21 -11 -10 15 -19 57 -19 101
1 204 23 251 54 23 15 23 14 13 -4 -47 -87 -157 -124 -278 -94 -32 8 -49 19
-57 36 -9 21 -6 28 29 64 52 54 156 130 224 164 78 39 143 55 232 55 68 0 79
-2 88 -21 7 -11 27 -38 46 -59 l34 -38 -60 -56 c-57 -52 -187 -126 -223 -126
-22 0 -30 -17 -11 -24 12 -5 1 -23 -53 -80 -37 -41 -76 -93 -86 -117 l-18 -44
22 22 c17 17 26 19 43 11 31 -13 122 20 188 68 45 33 49 35 38 13 -15 -27 83
77 119 127 35 49 38 33 4 -18 -16 -24 -39 -68 -52 -98 -13 -30 -39 -86 -57
-125 -42 -86 -44 -110 -8 -113 14 -1 35 3 47 10 50 26 124 100 147 145 27 55
68 117 102 153 13 14 30 40 37 58 8 18 18 35 22 38 13 8 -33 -95 -74 -164 -33
-56 -47 -88 -51 -117 -1 -6 -19 -46 -40 -88 -23 -45 -35 -80 -31 -88 6 -8 21
15 45 67 20 43 73 144 118 224 44 80 88 163 96 185 15 36 22 42 71 56 38 11
55 13 55 5 0 -19 -39 -134 -56 -167 -25 -50 -99 -124 -170 -170 -43 -27 -61
-45 -53 -50 18 -11 37 -2 103 48 l58 45 -22 -40 c-30 -53 -102 -126 -167 -170
-48 -32 -66 -52 -45 -52 4 0 28 13 53 29 53 34 117 102 149 156 13 22 44 67
69 100 48 64 111 206 111 252 0 15 -10 37 -21 50 -21 22 -21 23 -3 30 42 16
97 75 125 135 24 51 44 65 33 23 -4 -16 0 -34 10 -50 21 -33 22 -32 -22 -40
-54 -9 -61 -15 -77 -79 -13 -51 -13 -64 0 -116 8 -32 15 -60 15 -62 0 -3 -13
-3 -29 0 -23 3 -33 -2 -50 -26 -11 -17 -21 -33 -21 -37 0 -15 -73 -152 -131
-246 -32 -53 -59 -105 -59 -117 0 -11 -12 -35 -27 -54 -23 -28 -24 -30 -4 -13
59 51 271 408 271 457 0 29 17 29 25 1 3 -15 15 -39 25 -53 19 -27 19 -27 -9
-86 -38 -81 -97 -152 -171 -208 -35 -25 -70 -51 -79 -55 -9 -5 -13 -13 -9 -16
14 -14 59 6 114 51 31 26 53 40 49 33 -4 -8 11 6 34 31 40 45 121 188 121 216
0 21 18 17 52 -11 16 -14 34 -23 38 -20 5 3 16 -8 26 -24 9 -15 38 -41 65 -57
55 -32 51 -30 142 -46 65 -11 68 -10 92 12 21 20 25 32 25 85 0 35 -7 82 -15
105 -18 50 -18 50 -6 50 5 0 21 -24 36 -52 l26 -53 -5 43 c-3 35 -1 42 10 38
8 -3 30 8 49 25 40 36 45 27 12 -22 -60 -91 -61 -92 -38 -80 18 10 131 187
131 206 0 5 -9 18 -20 30 -19 21 -22 21 -102 8 -96 -16 -125 -28 -134 -57 -6
-19 -9 -18 -35 14 -37 43 -36 50 3 50 17 0 40 8 50 17 18 16 21 16 48 -1 28
-16 34 -16 92 -1 84 21 119 43 142 88 29 59 24 103 -15 144 -19 19 -49 44 -68
56 -19 11 -29 23 -23 25 7 2 28 -6 47 -18 47 -29 70 -16 78 44 8 57 -18 217
-43 267 -22 43 -60 60 -91 40 -10 -6 -24 -11 -31 -11 -7 0 2 9 20 20 57 35 60
58 16 140 -63 116 -189 242 -210 209 -3 -5 -14 -14 -24 -19 -18 -10 -19 -8
-13 35 5 39 2 49 -18 71 -32 35 -133 100 -186 120 -42 16 -45 16 -71 -3 -16
-12 -37 -46 -52 -84 -21 -55 -28 -64 -47 -61 -22 3 -26 11 -49 106 -13 55 -53
114 -86 125 -50 18 -102 13 -133 -10z m154 -57 c29 -57 51 -141 51 -194 0 -26
3 -48 7 -48 4 0 19 12 35 27 15 14 30 25 32 22 14 -14 -17 -105 -48 -141 -37
-42 -111 -176 -103 -184 6 -7 57 59 57 74 0 6 3 12 8 14 4 2 18 26 32 53 l25
50 3 -31 c6 -65 -10 -95 -83 -151 -38 -29 -71 -51 -72 -49 -2 2 1 34 8 72 23
133 -9 342 -71 467 -16 33 -30 61 -30 61 0 1 29 -1 65 -2 64 -4 66 -5 84 -40z
m-219 -24 c65 -114 96 -276 82 -433 -5 -52 -11 -97 -13 -99 -2 -2 -23 -6 -46
-10 l-43 -6 0 55 c0 30 3 55 7 55 3 0 19 -15 34 -32 15 -18 30 -30 35 -26 4 5
-11 26 -34 48 -40 37 -42 42 -42 97 l0 57 35 -34 c19 -18 37 -31 40 -28 3 3
-14 23 -37 44 -38 34 -48 52 -77 140 -18 56 -48 125 -66 153 -35 53 -35 56 15
64 72 12 78 9 110 -45z m-213 -50 c76 -126 103 -234 103 -410 l0 -124 -39 -43
-39 -42 -11 32 c-14 40 -15 149 -1 149 6 0 10 -4 10 -8 0 -5 14 -24 30 -42 17
-18 30 -30 30 -26 0 17 -31 66 -53 83 -19 15 -25 32 -31 83 l-7 65 40 -40 c23
-21 41 -34 41 -28 0 12 -66 73 -79 73 -4 0 -15 26 -25 58 -22 68 -59 145 -93
190 l-24 33 53 24 c29 13 55 24 58 24 3 1 20 -23 37 -51z m773 -14 c41 -24 86
-53 100 -63 l24 -19 -22 -70 c-57 -177 -202 -306 -369 -329 -47 -6 -64 -19
-38 -29 21 -9 130 13 183 36 23 11 42 17 42 15 0 -2 -20 -18 -45 -35 -56 -39
-58 -54 -3 -34 111 39 213 137 278 265 22 45 40 88 40 95 0 24 14 15 60 -38
48 -55 150 -206 150 -220 0 -13 -93 -52 -180 -76 -97 -27 -201 -42 -287 -42
-112 0 -120 -20 -13 -35 58 -9 64 -15 13 -15 -53 0 -101 -18 -114 -42 -10 -18
-14 -16 -65 32 -60 57 -122 89 -185 95 -23 3 -43 6 -45 8 -2 2 5 21 16 42 14
28 20 59 20 107 0 43 4 68 11 68 8 0 9 -22 5 -73 -10 -101 2 -127 58 -123 61
3 101 33 212 155 104 114 153 182 118 163 -11 -6 -52 -41 -93 -78 -44 -41 -71
-60 -68 -49 3 11 9 43 12 70 13 99 27 161 52 218 30 66 23 66 133 1z m-960
-86 c51 -79 77 -157 104 -315 7 -43 -5 -42 -29 3 -11 20 -30 43 -42 51 -30 20
-116 143 -100 143 7 1 -1 7 -18 14 -16 7 -40 25 -53 38 l-23 25 58 47 c32 25
60 46 63 46 3 0 21 -24 40 -52z m-103 -244 c-3 -3 -22 -1 -44 5 -47 13 -108
14 -151 2 -17 -5 -32 -8 -32 -5 0 2 23 34 52 70 l52 66 64 -66 c36 -37 62 -69
59 -72z m436 95 c3 -14 8 -76 12 -137 5 -75 12 -115 21 -123 22 -18 17 -27
-24 -48 l-39 -20 14 52 c10 37 13 90 10 180 -4 126 -2 145 6 96z m-444 -180
c113 -26 204 -97 255 -198 14 -28 26 -53 26 -56 0 -3 -24 15 -54 39 -64 52
-172 106 -227 113 -22 3 -39 3 -39 0 0 -3 44 -31 98 -61 53 -30 115 -70 137
-89 l40 -35 -45 4 c-149 16 -257 60 -338 137 -35 33 -122 141 -122 151 0 10
223 6 269 -5z m-273 -140 c21 -28 55 -64 76 -79 l38 -28 -52 -12 c-29 -7 -75
-23 -103 -36 -27 -13 -51 -22 -52 -20 -6 6 47 226 54 226 0 0 18 -23 39 -51z
m1798 -6 c18 -59 33 -138 40 -222 l6 -63 -33 24 c-17 14 -70 43 -117 65 -143
68 -309 81 -417 33 -25 -11 -47 -19 -47 -18 -1 2 -11 26 -22 54 l-21 51 111 6
c61 3 157 15 214 27 96 19 225 62 247 81 17 16 23 9 39 -38z m-832 1 c140 -47
213 -207 163 -355 -51 -148 -231 -217 -378 -146 -96 48 -147 134 -147 251 0
185 183 311 362 250z m-856 -35 c3 -6 33 -28 66 -49 69 -45 64 -53 -37 -65
l-60 -8 27 28 c29 29 27 45 -10 88 -9 10 -10 17 -4 17 6 0 14 -5 18 -11z m493
-69 c-10 -19 -23 -48 -28 -63 -11 -27 -11 -27 -36 -11 l-26 17 30 28 c17 15
31 36 31 46 0 12 8 18 24 18 l23 0 -18 -35z m-107 -87 c15 -4 28 -11 28 -15 0
-5 0 -28 0 -52 l0 -43 -97 -7 c-135 -10 -136 -10 -243 8 -99 17 -269 22 -200
6 19 -4 67 -11 105 -14 39 -3 99 -9 134 -13 l65 -6 -50 -22 c-34 -15 -79 -24
-149 -28 -115 -7 -165 -16 -165 -28 0 -14 100 -10 160 6 79 21 80 20 14 -26
-32 -22 -82 -64 -111 -92 -37 -35 -54 -46 -57 -36 -12 36 -26 152 -26 211 l0
65 78 36 c94 43 140 56 240 65 78 7 225 -1 274 -15z m746 -23 c32 0 27 -11
-18 -43 l-40 -28 0 52 c0 50 1 51 18 36 10 -10 28 -17 40 -17z m323 -26 c73
-22 174 -76 228 -122 l45 -39 -12 -54 c-12 -53 -14 -56 -60 -72 -26 -9 -66
-21 -89 -25 -39 -9 -43 -8 -70 22 -60 64 -61 68 -12 46 55 -25 122 -25 174 -1
l40 19 -81 -6 c-94 -5 -174 10 -201 40 -18 20 -17 21 2 15 23 -6 87 -11 125
-8 22 1 23 3 8 12 -10 5 -50 18 -90 29 l-73 19 80 1 c54 1 74 4 60 10 -29 12
-92 12 -135 -1 -25 -8 -54 -8 -91 -2 l-54 10 40 17 c83 35 83 35 21 35 -41 1
-73 -6 -102 -20 -43 -20 -110 -23 -108 -4 0 14 90 73 128 84 51 15 168 12 227
-5z m-992 -95 c16 -47 14 -51 -21 -33 -18 9 -34 18 -36 19 -5 4 31 45 39 45 4
0 12 -14 18 -31z m799 -60 l73 -11 60 -76 c33 -42 56 -78 51 -80 -21 -7 -153
28 -202 53 -49 25 -150 115 -150 134 0 5 21 4 48 0 26 -5 80 -14 120 -20z
m-700 -99 c15 -12 38 -29 52 -40 l25 -18 -29 -23 c-15 -12 -41 -40 -57 -62
-34 -46 -37 -43 -9 10 18 34 18 59 0 48 -4 -3 -38 -45 -75 -94 -37 -49 -89
-105 -115 -125 -53 -40 -219 -121 -229 -110 -12 12 156 160 276 242 119 81
156 112 136 112 -6 0 -10 18 -10 40 0 22 2 40 4 40 3 0 17 -9 31 -20z m-102
-9 c-8 -12 -157 -74 -163 -68 -12 13 29 54 55 55 15 0 38 5 52 11 32 12 63 14
56 2z m754 -33 c117 -57 201 -162 235 -295 19 -73 19 -117 -1 -133 -21 -19
-147 12 -207 50 -40 25 -46 34 -51 72 -13 108 -15 138 -11 138 3 0 19 -16 36
-35 37 -42 88 -80 96 -71 8 8 -39 69 -116 149 -35 37 -61 67 -57 67 15 0 71
-43 130 -99 43 -40 53 -47 37 -24 -30 44 -96 99 -150 125 -41 19 -107 64 -136
91 -6 6 16 7 60 3 49 -4 89 -15 135 -38z m-79 -167 c0 -25 4 -67 8 -93 4 -27
4 -48 -1 -48 -4 0 -28 27 -53 61 -43 59 -69 122 -82 204 l-6 40 66 -59 c64
-56 67 -60 68 -105z m-363 130 c11 -6 8 -16 -13 -47 -22 -32 -25 -34 -20 -13
4 17 1 30 -9 38 -9 8 -16 17 -16 22 0 11 41 11 58 0z m-94 -100 c-44 -81 -67
-106 -160 -173 -46 -33 -69 -55 -62 -59 15 -9 57 12 105 54 l37 32 -33 -60
c-18 -33 -41 -68 -50 -79 -25 -29 -146 -107 -149 -97 -9 26 124 261 233 412
40 55 40 56 77 46 l37 -9 -35 -67z m984 31 c-16 -23 -73 -72 -112 -96 -23 -15
-30 -16 -37 -5 -5 8 -9 19 -9 24 0 6 -9 21 -20 35 -11 14 -20 28 -20 33 0 4
28 8 63 8 34 1 76 5 92 9 53 13 58 12 43 -8z"/>
<path d="M1927 2057 c-14 -18 -51 -47 -83 -64 -44 -24 -55 -33 -42 -38 26 -10
121 57 141 100 21 44 17 44 -16 2z"/>
<path d="M2200 1929 c-30 -16 -106 -47 -167 -70 -152 -56 -148 -65 7 -17 78
25 230 96 230 109 0 13 -9 10 -70 -22z"/>
<path d="M940 2116 c0 -5 86 -56 95 -56 15 0 -10 22 -45 40 -39 20 -50 23 -50
16z"/>
<path d="M806 1761 c23 -25 122 -63 138 -54 5 3 -22 17 -60 31 -38 13 -76 29
-84 35 -8 6 -5 0 6 -12z"/>
<path d="M2325 1629 l-70 -18 59 1 c40 1 65 7 80 19 25 22 21 22 -69 -2z"/>
<path d="M1428 1681 c-73 -24 -128 -97 -128 -171 0 -69 52 -146 113 -169 61
-23 140 -10 186 32 32 29 61 94 61 136 0 50 -37 119 -79 147 -41 26 -111 38
-153 25z m133 -61 c58 -42 73 -113 39 -180 -23 -45 -63 -70 -114 -70 -71 0
-115 31 -137 97 -41 126 102 230 212 153z"/>
<path d="M1920 1351 c0 -13 34 -40 70 -54 53 -22 90 -29 90 -17 0 5 -6 10 -12
10 -7 0 -43 15 -80 34 -38 19 -68 31 -68 27z"/>
<path d="M1910 976 c0 -27 53 -81 103 -107 112 -57 146 -63 50 -8 -32 18 -79
53 -105 77 -27 25 -48 42 -48 38z"/>
<path d="M1770 1126 c0 -14 29 -63 46 -77 10 -8 6 4 -11 31 -32 52 -35 56 -35
46z"/>
<path d="M1707 2448 c-25 -14 -37 -49 -24 -73 26 -49 57 -58 81 -23 21 29 20
61 -1 80 -29 24 -37 27 -56 16z m41 -33 c2 -2 0 -20 -4 -41 l-7 -39 -18 40
c-10 22 -18 44 -18 48 -1 7 37 0 47 -8z"/>
<path d="M825 1225 c-63 -14 -115 -31 -115 -39 0 -2 15 -1 33 4 17 5 68 14
112 20 44 7 87 16 95 21 23 13 -55 10 -125 -6z"/>
<path d="M1515 1024 c-27 -19 -43 -34 -35 -34 19 0 90 48 90 60 0 12 4 14 -55
-26z"/>
<path d="M1781 863 c-11 -10 -39 -60 -60 -111 -22 -51 -58 -120 -81 -153 -23
-34 -40 -63 -37 -65 5 -5 74 77 117 140 18 28 45 80 60 117 l26 66 36 -31 36
-31 -24 -75 c-13 -41 -34 -93 -47 -115 -21 -37 -29 -42 -112 -67 -50 -15 -81
-27 -70 -27 11 -1 52 8 90 19 85 24 110 49 153 153 41 97 41 120 -2 163 -38
38 -55 42 -85 17z"/>
<path d="M985 809 c-16 -10 -56 -27 -87 -38 -56 -19 -57 -19 -74 0 -9 10 -22
19 -27 19 -6 0 0 -11 12 -24 19 -20 30 -23 60 -19 38 6 124 48 142 70 15 17
11 16 -26 -8z"/>
<path d="M1801 765 c-13 -25 -44 -71 -67 -103 -47 -61 -53 -75 -29 -66 8 4 12
10 9 15 -3 5 1 9 10 9 16 0 93 110 102 146 11 44 -1 44 -25 -1z"/>
<path d="M1954 759 c-13 -20 -44 -112 -40 -116 2 -2 14 21 26 52 18 43 26 55
39 50 9 -4 31 -9 49 -12 17 -3 32 -8 32 -12 -1 -7 -71 -58 -108 -79 -31 -17
-21 -28 10 -11 32 17 108 80 108 89 0 27 -102 61 -116 39z"/>
</g>
</svg>
